<svg width="718" height="517" viewBox="0 0 718 517" fill="none" xmlns="http://www.w3.org/2000/svg">
<g clip-path="url(#clip0_101_45)">
<path d="M120.429 496.143C119.854 496.169 119.285 496.018 118.799 495.71C118.312 495.402 117.933 494.952 117.71 494.421C117.488 493.89 117.435 493.304 117.557 492.741C117.68 492.179 117.972 491.667 118.395 491.277L118.587 490.512C118.562 490.451 118.536 490.389 118.511 490.328C117.931 488.96 116.961 487.793 115.721 486.975C114.48 486.157 113.026 485.723 111.54 485.729C110.054 485.734 108.603 486.178 107.369 487.006C106.135 487.834 105.173 489.007 104.604 490.38C102.33 495.858 99.4337 501.346 98.7206 507.138C98.4066 509.698 98.5391 512.293 99.1121 514.808C93.7699 503.155 90.9959 490.489 90.978 477.67C90.9769 474.453 91.1556 471.238 91.5134 468.041C91.809 465.42 92.2192 462.818 92.7439 460.235C95.6072 446.217 101.755 433.078 110.682 421.897C115.003 419.54 118.497 415.915 120.694 411.51C121.49 409.927 122.052 408.237 122.364 406.492C121.876 406.556 120.526 399.133 120.894 398.678C120.214 397.647 118.999 397.135 118.257 396.129C114.567 391.127 109.484 392 106.831 398.798C101.162 401.659 101.107 406.403 104.585 410.967C106.798 413.87 107.102 417.798 109.044 420.907C108.844 421.162 108.636 421.41 108.437 421.666C104.785 426.361 101.603 431.403 98.9345 436.72C99.5834 430.764 98.809 424.739 96.6751 419.141C94.5124 413.924 90.4588 409.53 86.8891 405.019C82.6013 399.602 73.8087 401.966 73.0533 408.834C73.046 408.9 73.0389 408.967 73.0319 409.033C73.5621 409.332 74.0812 409.65 74.589 409.986C75.227 410.412 75.7213 411.021 76.0072 411.733C76.2932 412.445 76.3574 413.227 76.1914 413.976C76.0254 414.725 75.6371 415.406 75.0772 415.931C74.5173 416.455 73.812 416.799 73.0536 416.916L72.976 416.928C73.1649 418.839 73.4988 420.732 73.9748 422.593C69.3952 440.303 79.282 446.753 93.399 447.043C93.7107 447.203 94.0143 447.363 94.326 447.514C91.6454 455.111 89.964 463.024 89.324 471.054C88.9617 475.791 88.9831 480.55 89.388 485.284L89.364 485.117C88.3411 479.852 85.5329 475.102 81.4136 471.669C75.2954 466.643 66.6515 464.792 60.051 460.752C59.3495 460.302 58.5339 460.062 57.7003 460.06C56.8667 460.058 56.0499 460.294 55.3462 460.741C54.6426 461.188 54.0814 461.827 53.7289 462.582C53.3764 463.338 53.2473 464.178 53.3568 465.004C53.3656 465.063 53.3746 465.122 53.3838 465.181C54.3677 465.582 55.3257 466.043 56.2523 466.563C56.7825 466.862 57.3015 467.18 57.8093 467.516C58.4473 467.942 58.9416 468.551 59.2275 469.263C59.5134 469.975 59.5776 470.757 59.4117 471.506C59.2457 472.255 58.8573 472.936 58.2975 473.461C57.7376 473.985 57.0323 474.329 56.274 474.446L56.1963 474.458C56.1404 474.466 56.0924 474.473 56.0366 474.481C57.7177 478.496 60.0774 482.191 63.012 485.404C65.8755 500.864 78.174 502.331 91.3296 497.829H91.3376C92.781 504.101 94.8724 510.207 97.578 516.047H119.871C119.951 515.799 120.023 515.543 120.095 515.296C118.031 515.425 115.96 515.302 113.926 514.928C115.58 512.899 117.234 510.853 118.888 508.824C118.925 508.786 118.96 508.746 118.992 508.704C119.831 507.665 120.678 506.634 121.517 505.596L121.517 505.594C121.562 502.41 121.197 499.234 120.43 496.143L120.429 496.143H120.429Z" fill="#F2F2F2"/>
<path d="M146.07 515.547H182.044C188.196 494.831 182.077 445.872 190.186 425.861C205.745 387.492 225.622 347.008 262.721 328.274C278.561 320.274 295.832 317.15 313.47 317.32C337.836 317.551 362.886 324.091 385.821 332.76C395.203 336.297 404.499 340.188 413.758 344.163C448.643 359.153 483.149 375.481 520.664 379.894C568.135 385.474 623.948 364.235 636.914 318.487C646.81 283.461 628.988 247.099 610.298 215.818C591.608 184.537 570.716 151.067 574.129 114.851C574.141 114.729 574.153 114.595 574.178 114.474C575.462 101.465 583.229 92.1165 594.079 86.1229H546.84C546.216 119.908 565.762 149.73 583.351 179.175C602.041 210.444 619.863 246.819 609.968 281.844C597.002 327.581 489.64 273.968 442.169 268.376C428.763 266.808 450.058 272.388 437.276 268.376C417.228 262.091 415.006 319.739 395.496 311.278C383.35 306.001 371.192 300.761 358.874 296.105C353.774 294.172 348.563 292.361 343.291 290.683C343.286 290.683 343.282 290.681 343.278 290.679C343.273 290.677 343.27 290.674 343.267 290.671C307.868 279.462 269.154 275.097 236.447 291.303C236.227 291.412 235.994 291.522 235.774 291.631C198.675 310.354 178.799 350.838 163.24 389.206C150.384 420.925 152.406 482.09 146.07 515.547L146.07 515.547Z" fill="#F2F2F2"/>
<path d="M359.313 514.486C183.748 518.205 179.898 441.301 179.898 349.829C179.898 258.357 259.957 186.8 359.166 186.8C458.374 186.8 537.166 258.331 537.166 349.8C537.166 441.27 458.521 514.486 359.313 514.486Z" fill="white"/>
<path d="M358.313 515.486C182.748 519.205 178.898 442.301 178.898 350.829C178.898 259.357 259.611 184.942 358.819 184.942C458.028 184.942 538.741 259.359 538.741 350.829C538.741 442.299 457.521 515.486 358.313 515.486ZM358.819 189.507C262.34 189.507 185.473 261.888 183.849 350.829C182.338 433.555 277.655 536.786 358.819 512.154C402.346 467.956 525.406 420.352 533.79 350.829C544.451 262.42 455.299 189.507 358.819 189.507L358.819 189.507Z" fill="#94A3B8"/>
<path d="M5.26795e-06 515.676C-0.000460802 515.832 0.0300033 515.987 0.0896451 516.132C0.149287 516.276 0.236929 516.408 0.34753 516.518C0.458131 516.629 0.589508 516.716 0.734103 516.776C0.878698 516.836 1.03366 516.866 1.19007 516.866H716.48C716.796 516.866 717.098 516.74 717.321 516.517C717.545 516.294 717.67 515.991 717.67 515.676C717.67 515.36 717.545 515.057 717.321 514.834C717.098 514.611 716.796 514.486 716.48 514.486H1.19007C1.03366 514.485 0.8787 514.516 0.734107 514.575C0.589514 514.635 0.458139 514.722 0.347539 514.833C0.236939 514.944 0.149296 515.075 0.0896532 515.22C0.03001 515.364 -0.00045682 515.519 5.26795e-06 515.676V515.676Z" fill="#CCCCCC"/>
<path d="M481.974 500.445H469.622L463.746 452.8L481.977 452.801L481.974 500.445Z" fill="#A0616A"/>
<path d="M482.409 513.331L444.425 513.33V512.849C444.425 508.928 445.983 505.168 448.755 502.395C451.528 499.623 455.288 498.065 459.209 498.065H459.21L466.149 492.801L479.094 498.066L482.41 498.066L482.409 513.331V513.331Z" fill="#2F2E41"/>
<path d="M463.206 390.005C449.1 376.308 432.89 364.961 415.192 356.396L406.166 366.585L411.915 354.846C388.227 344.029 362.513 338.364 336.473 338.227C310.433 338.089 284.66 343.482 260.86 354.048L265.55 364.234L258.348 355.181C239.757 363.829 222.744 375.526 208.012 389.788C206.498 391.199 205.563 393.123 205.388 395.185C205.312 396.306 205.478 397.43 205.874 398.481C206.27 399.532 206.888 400.485 207.684 401.277C209.954 402.352 213.188 404.818 217.994 411.586C219.468 413.039 221.451 413.86 223.52 413.872C225.59 413.885 227.583 413.089 229.075 411.654C257.614 384.028 295.777 368.583 335.497 368.583C375.217 368.583 413.38 384.028 441.919 411.654C443.41 413.089 445.403 413.885 447.473 413.872C449.543 413.86 451.526 413.039 453 411.586C457.836 407.236 458.966 401.088 463.12 401.465C464.583 400.051 465.47 398.144 465.612 396.114C465.673 394.983 465.49 393.852 465.075 392.797C464.66 391.743 464.022 390.791 463.206 390.005V390.005Z" fill="#6C63FF"/>
<path d="M369.031 404.832L356.679 404.831L350.803 357.187L369.033 357.188L369.031 404.832Z" fill="#A0616A"/>
<path d="M369.466 417.718L331.482 417.716V417.236C331.482 413.315 333.04 409.555 335.812 406.782C338.585 404.009 342.345 402.452 346.266 402.452H346.267L353.205 397.188L366.151 402.452L369.466 402.452L369.466 417.718V417.718Z" fill="#2F2E41"/>
<path d="M496.097 229.417L408.437 238.576L386.898 259.858L352.636 271.045C348.323 272.454 344.542 275.146 341.8 278.761C339.058 282.377 337.485 286.743 337.292 291.277C336.401 312.173 334.639 346.865 332.778 346.502C330.118 345.982 335.436 358.983 339.16 358.228C342.885 357.473 346.759 365.95 344.184 367.457C341.608 368.964 345.898 381.858 345.898 381.858L372.73 377.535C376.089 352.2 388.356 325.498 373.898 306.858C398.383 298.912 419.953 292.268 435.813 288.173L444.391 284.614L462.201 473.846L487.387 474.26C494.336 438.509 497.828 406.333 492.396 383.379C492.396 383.379 493.176 314.422 496.155 315.176C499.133 315.93 496.608 306.947 496.608 306.947C496.608 306.947 494 299.296 497.205 296.123C500.41 292.949 498.408 274.281 498.408 274.281C503.704 256.615 502.11 242.029 496.097 229.417V229.417Z" fill="#2F2E41"/>
<path d="M506.61 190.017C507.479 186.123 508.347 182.229 509.215 178.335C511.653 167.431 514.088 156.531 516.519 145.637C519.71 131.362 522.915 116.591 520.17 102.227C519.758 100.066 519.182 97.9406 518.446 95.8682C514.335 84.1094 505.257 73.8057 493.218 71.6357L491.251 64.3067L464.388 61L459.304 68.0117C448.36 67.1367 441.864 78.0332 434.315 87.0127L431.315 90.0127C429.129 92.7471 428.681 103.02 427.315 106.013C421.245 119.322 429.61 106.388 429.315 121.013C429.011 136.168 426.031 150.874 425.725 166.028C425.692 167.655 422.193 168.894 421.591 171.745C421.266 173.284 423.977 176.138 423.566 177.858C423.215 179.326 424.967 185.227 424.591 186.745C422.847 193.785 418.898 196.557 418.725 200.028C418.646 201.364 418.447 202.691 418.13 203.991C417.914 204.914 414.886 203.808 414.591 204.745C414.095 206.319 416.275 209.945 415.678 211.521C414.522 214.571 415.299 219.958 414.591 222.745C411.618 234.446 412.76 229.803 406.315 240.013C422.81 244.999 429.934 261.698 446.9 264.704C447.665 262.232 448.427 259.754 449.188 257.27C451.437 257.414 453.699 257.549 455.962 257.673C456.089 259.83 456.217 261.988 456.345 264.133C473.543 265.242 490.792 265.336 508.002 264.414C507.425 262.685 506.965 260.919 506.623 259.128C505.679 254.149 507.709 248.748 507.926 243.819C508.079 240.168 506.343 237.066 506.394 233.133C506.406 232.405 510.492 231.793 510.48 231.052C510.415 224.515 506.7 215.769 507.926 209.347C509.202 202.746 505.155 196.58 506.61 190.019V190.017L506.61 190.017Z" fill="#94A3B8"/>
<path d="M380.805 32.9052C378.528 32.9079 376.344 33.8138 374.734 35.4243C373.123 37.0348 372.217 39.2183 372.215 41.4959V93.2596C372.217 95.5372 373.123 97.7207 374.734 99.3312C376.344 100.942 378.528 101.848 380.805 101.85H396.82C399.097 101.848 401.281 100.942 402.891 99.3312C404.502 97.7207 405.408 95.5372 405.41 93.2596C407.963 67.2497 407.025 53.2127 405.41 41.4959C405.408 39.2183 404.502 37.0348 402.891 35.4243C401.281 33.8138 399.097 32.9079 396.82 32.9052H380.805V32.9052Z" fill="#6C63FF"/>
<path d="M378.805 32.9053C376.528 32.9079 374.344 33.8139 372.734 35.4243C371.123 37.0348 370.217 39.2182 370.215 41.4958C369.295 61.8434 368.655 81.2487 370.215 93.2595C370.217 95.5371 371.123 97.7207 372.734 99.3313C374.344 100.942 376.528 101.848 378.805 101.85H394.82C397.097 101.848 399.281 100.942 400.891 99.3313C402.502 97.7208 403.408 95.5372 403.41 93.2596V41.496C403.408 39.2184 402.502 37.0349 400.891 35.4244C399.281 33.8139 397.097 32.908 394.82 32.9053L378.805 32.9053Z" fill="#1E293B"/>
<path d="M420.032 108.242C420.032 108.242 435.179 107.628 427.469 114.168C422.452 118.423 411.156 148.051 399.419 151.635C398.037 152.056 396.582 152.186 395.148 152.016C393.713 151.846 392.33 151.379 391.085 150.646C389.839 149.914 388.76 148.93 387.915 147.758C387.07 146.587 386.478 145.252 386.175 143.839L375.536 94.2501L389.434 92.1362L397.903 131.384L420.032 108.242V108.242Z" fill="#A0616A"/>
<path d="M383.254 97.8719C388.682 97.8719 393.083 93.4712 393.083 88.0426C393.083 82.614 388.682 78.2133 383.254 78.2133C377.825 78.2133 373.424 82.614 373.424 88.0426C373.424 93.4712 377.825 97.8719 383.254 97.8719Z" fill="#A0616A"/>
<path d="M440.727 80.3565C449.731 87.1185 452.383 109.293 446.725 119.028C435.909 137.639 414.585 151.968 413.676 149.978C412.431 147.253 410.261 150.912 410.334 152.11C410.408 153.308 406.3 152.95 406.779 154.218C407.258 155.486 404.016 155.761 402.608 156.496C402.608 156.496 389.722 156.714 385.657 150.834C381.592 144.954 381.047 136.828 381.047 136.828L376 130.89L402.757 115.249L400.552 125.806L413.9 110.264L416.725 104.028L421.232 101.727L422.725 97.0284L426.88 95.1496L443.315 76.0127L440.727 80.3565L440.727 80.3565Z" fill="#94A3B8"/>
<path d="M514.511 263.303C515.634 262.563 516.581 261.585 517.285 260.438C517.989 259.292 518.433 258.005 518.586 256.668C518.739 255.331 518.598 253.977 518.171 252.702C517.744 251.426 517.042 250.259 516.116 249.283L518.006 165.198L501.392 167.783L502.564 249.34C501.028 251.005 500.157 253.176 500.114 255.441C500.072 257.706 500.862 259.907 502.335 261.628C503.808 263.349 505.861 264.471 508.105 264.779C510.349 265.088 512.628 264.563 514.511 263.303V263.303Z" fill="#A0616A"/>
<path d="M515.235 93.5247C515.235 93.5247 514.133 94.3577 519.784 102.969C520.905 104.677 521.665 111.563 522.196 120.549C522.37 123.477 524.036 125.534 524.166 128.8C524.276 131.573 522.854 135.523 522.938 138.398C522.983 139.932 524.127 141.266 524.166 142.8C524.182 143.44 523.096 144.283 523.111 144.921C523.128 145.608 523.144 146.293 523.16 146.976C523.548 164.055 523.631 179.481 524.017 179.22C524.839 178.664 522.797 181.536 523.818 182.015C524.839 182.495 522.946 184.873 523.434 186.106C524.028 187.608 523.289 189.266 522.822 190.773C521.474 195.127 521.183 198.866 520.011 200.934C521.403 201.733 522.489 202.972 523.099 204.456C523.71 205.94 523.809 207.586 523.381 209.132L499.964 204.899C497.109 200.325 497.522 195.525 499.467 194.688L498.888 179.805L492.219 102.807L511.764 94.08L515.235 93.5247V93.5247Z" fill="#94A3B8"/>
<path d="M369.898 46.1814C369.562 46.1814 369.288 46.3416 369.288 46.5385V49.3954C369.288 49.5924 369.562 49.7525 369.898 49.7525C370.234 49.7525 370.508 49.5924 370.508 49.3954V46.5385C370.508 46.3416 370.234 46.1814 369.898 46.1814Z" fill="#94A3B8"/>
<path d="M369.898 53.7521C369.562 53.7521 369.288 53.9122 369.288 54.1092V59.6444C369.288 59.8414 369.562 60.0015 369.898 60.0015C370.234 60.0015 370.508 59.8414 370.508 59.6444V54.1092C370.508 53.9122 370.234 53.7521 369.898 53.7521Z" fill="#94A3B8"/>
<path d="M403.898 54.7521C403.719 54.7726 403.555 54.8624 403.441 55.0023C403.327 55.1423 403.272 55.3213 403.288 55.501V67.1091C403.27 67.1997 403.271 67.2932 403.293 67.3831C403.315 67.4729 403.357 67.5567 403.415 67.6284C403.474 67.7002 403.547 67.758 403.631 67.7977C403.714 67.8374 403.806 67.858 403.898 67.858C403.99 67.858 404.082 67.8374 404.165 67.7977C404.249 67.758 404.322 67.7002 404.381 67.6284C404.439 67.5567 404.481 67.4729 404.503 67.3831C404.525 67.2932 404.526 67.1997 404.508 67.1091V55.501C404.524 55.3213 404.469 55.1423 404.355 55.0023C404.241 54.8624 404.077 54.7726 403.898 54.7521V54.7521Z" fill="#94A3B8"/>
<path d="M368.898 62.6086C368.562 62.6086 368.288 62.7687 368.288 62.9657V68.5009C368.288 68.6979 368.562 68.858 368.898 68.858C369.234 68.858 369.508 68.6979 369.508 68.5009V62.9657C369.508 62.7687 369.234 62.6086 368.898 62.6086Z" fill="#94A3B8"/>
<path d="M475.789 59.1913C489.653 59.1913 500.893 47.9518 500.893 34.0872C500.893 20.2226 489.653 8.98309 475.789 8.98309C461.924 8.98309 450.684 20.2226 450.684 34.0872C450.684 47.9518 461.924 59.1913 475.789 59.1913Z" fill="#A0616A"/>
<path d="M503.819 45.6218C501.859 49.544 499.993 51.997 496.605 54.1895C496.433 53.6897 496.294 53.179 496.189 52.6609C495.828 53.467 495.476 54.2714 495.107 55.0794C492.963 56.2764 495.277 54.4296 491.768 55.768L488.816 50.7024C488.008 48.2978 489.153 45.6789 490.61 43.598C492.068 41.5256 493.883 39.6256 494.674 37.2161C495.465 34.8068 494.763 31.6147 492.393 30.7179C490.059 29.8223 487.481 31.5214 485 31.2262C482.136 30.8885 480.188 27.8925 480.032 25.0101C479.877 22.1277 481.053 19.3602 482.204 16.7225C478.736 19.2076 467.994 23.66 462.146 23.8727C461.988 22.0486 461.145 20.3521 459.786 19.1246C460.024 20.7853 459.62 22.4742 458.656 23.847C452.93 23.5534 451.854 31.8694 448.898 28.8581C449.821 28.3937 446.42 18.059 447.343 17.5947C446.633 15.649 445.924 13.709 445.216 11.7746C446.531 12.1061 447.857 12.4444 449.181 12.7741C449.264 12.0668 449.479 11.3814 449.815 10.7538C450.759 10.2157 451.763 9.79168 452.807 9.49069C453.143 9.40084 453.488 9.30919 453.837 9.23453C454.352 9.11966 454.874 9.03456 455.4 8.97968C454.639 8.5383 453.871 8.10719 453.108 7.65736C453.016 7.60574 452.934 7.55229 452.843 7.50068C453.915 6.76396 455.034 6.09944 456.195 5.51154C461.087 2.95244 466.164 0.344829 471.678 0.0258491C475.261 -0.202249 478.812 0.820002 481.725 2.91818C484.237 4.72243 487.279 5.63751 490.37 5.51864C491.873 5.50719 493.359 5.83819 494.715 6.48656C494.094 7.11226 493.414 7.6775 492.686 8.17468C494.277 8.21605 495.86 8.25925 497.453 8.30914C499.237 9.93259 500.741 11.8387 501.906 13.9509C507.486 23.4847 508.761 35.7451 503.819 45.6218H503.819Z" fill="#2F2E41"/>
<path d="M423.202 436.726C423.011 435.473 422.524 434.283 421.781 433.256C421.039 432.229 420.061 431.394 418.93 430.821C408.318 425.389 397.195 421.018 385.724 417.772L374.989 431.923L382.923 416.991C353.558 409.113 322.693 408.675 293.116 415.717L297.244 427.099L290.5 416.369C277.183 419.717 264.288 424.566 252.063 430.821C250.937 431.397 249.964 432.231 249.222 433.255C248.48 434.28 247.991 435.464 247.793 436.714C247.596 437.963 247.697 439.241 248.088 440.443C248.479 441.646 249.148 442.74 250.042 443.634C254.683 443.92 257.747 448.232 260.806 454.399C261.978 455.556 263.479 456.322 265.104 456.592C266.728 456.863 268.396 456.624 269.88 455.91C290.38 446.159 312.796 441.1 335.497 441.1C358.198 441.1 380.613 446.159 401.114 455.91C402.597 456.625 404.265 456.863 405.889 456.593C407.514 456.322 409.014 455.556 410.186 454.399C412.025 449.413 415.815 446.464 420.952 443.634C421.85 442.745 422.523 441.655 422.914 440.453C423.305 439.251 423.404 437.974 423.202 436.726V436.726Z" fill="#6C63FF"/>
<path d="M363.894 485.461C361.543 485.091 359.178 484.769 356.799 484.494L347.473 499.333L354.422 484.241C343.131 483.087 331.758 482.967 320.445 483.883L327.558 499.333L317.983 484.097C314.328 484.443 310.701 484.898 307.1 485.461C305.867 485.643 304.71 486.17 303.763 486.98C302.816 487.79 302.117 488.851 301.746 490.041C301.35 491.24 301.296 492.527 301.589 493.755C301.883 494.984 302.512 496.107 303.407 496.999C307.258 500.771 311.503 506.01 318.481 512.073C319.162 512.763 319.984 513.297 320.892 513.638C321.799 513.979 322.769 514.119 323.736 514.049C327.603 513.762 331.56 513.617 335.497 513.617H335.497C339.434 513.617 343.391 513.762 347.257 514.049C348.224 514.118 349.194 513.977 350.101 513.636C351.008 513.295 351.831 512.762 352.512 512.073C359.718 505.922 363.359 500.283 367.587 496.999C368.482 496.107 369.111 494.984 369.404 493.755C369.697 492.527 369.643 491.24 369.248 490.041C368.877 488.851 368.177 487.79 367.23 486.98C366.283 486.169 365.127 485.643 363.894 485.461V485.461Z" fill="#6C63FF"/>
</g>
<defs>
<clipPath id="clip0_101_45">
<rect width="717.67" height="516.866" fill="white"/>
</clipPath>
</defs>
</svg>
