<svg width="50" height="50" viewBox="0 0 50 50" fill="none" xmlns="http://www.w3.org/2000/svg">
<path d="M25.088 36.6639C27.1602 36.6639 28.84 34.9841 28.84 32.912C28.84 30.8398 27.1602 29.16 25.088 29.16C23.0159 29.16 21.3361 30.8398 21.3361 32.912C21.3361 34.9841 23.0159 36.6639 25.088 36.6639Z" fill="#DC2626"/>
<path d="M26.8399 13.3359H23.504C22.4 13.3359 21.504 14.24 21.504 15.3359V26C21.504 27.0959 22.4081 28 23.504 28H26.8399C27.9359 28 28.8399 27.0959 28.8399 26V15.3359C28.8399 14.24 27.936 13.3359 26.8399 13.3359Z" fill="#DC2626"/>
<path d="M24.9999 0C11.184 0 0 11.184 0 24.9999C0 38.8159 11.184 49.9999 24.9999 49.9999C38.8159 49.9999 49.9999 38.8159 49.9999 24.9999C49.9999 11.184 38.816 0 24.9999 0ZM25.024 42.848C15.1761 42.848 7.184 34.8639 7.184 25.0079C7.184 15.1519 15.168 7.1679 25.024 7.1679C34.88 7.1679 42.864 15.1519 42.864 25.0079C42.864 34.864 34.8721 42.848 25.024 42.848Z" fill="#DC2626"/>
</svg>
